<svg xmlns="http://www.w3.org/2000/svg" viewBox="0 0 412 500"><defs><style>.cls-1{fill:#303030;}.cls-2{fill:#303f9f;}.cls-3{fill:#3f51b5;}.cls-4{fill:#454545;}.cls-5{fill:#fafafa;}</style></defs><title>final_1</title><g id="Layer_2" data-name="Layer 2"><g id="Layer_1-2" data-name="Layer 1"><path class="cls-1" d="M61.77,0H362a50,50,0,0,1,50,50V450a50,50,0,0,1-50,50H61.77a0,0,0,0,1,0,0V0A0,0,0,0,1,61.77,0Z"/><path class="cls-2" d="M351.78,48.75c0-8,5-14.55,11.17-14.55h5.16c6.17,0,11.17,6.52,11.17,14.55"/><ellipse class="cls-2" cx="365.53" cy="433.21" rx="6.88" ry="12.41"/><path class="cls-3" d="M379.28,48.75h-27.5V400.29c0,.38.06.74.09,1.12h27.33c0-.38.09-.74.09-1.12Z"/><path class="cls-3" d="M351.78,401.41"/><rect class="cls-3" x="352.03" y="383.63" width="27" height="50" rx="12" ry="12"/></g><g id="Layer_2-2" data-name="Layer 2"><path class="cls-4" d="M50,0H64.3a0,0,0,0,1,0,0V500a0,0,0,0,1,0,0H50A50,50,0,0,1,0,450V50A50,50,0,0,1,50,0Z"/></g><g id="Layer_3" data-name="Layer 3"><rect class="cls-5" x="96.66" y="69.05" width="224" height="158.68" rx="20" ry="20"/></g><g id="Layer_4" data-name="Layer 4"><rect class="cls-3" x="127.07" y="134.71" width="163.17" height="28.3" rx="14.15" ry="14.15"/><rect class="cls-3" x="127.07" y="179.71" width="163.17" height="28.3" rx="14.15" ry="14.15"/><rect class="cls-3" x="127.07" y="89.71" width="163.17" height="28.3" rx="14.15" ry="14.15"/></g></g></svg>